<mxfile host="Electron" agent="Mozilla/5.0 (Windows NT 10.0; Win64; x64) AppleWebKit/537.36 (KHTML, like Gecko) draw.io/28.1.2 Chrome/138.0.7204.243 Electron/37.4.0 Safari/537.36" version="28.1.2">
  <diagram id="hDvmuVT_13PEvdkBObF7" name="Seite-1">
    <mxGraphModel dx="1426" dy="841" grid="1" gridSize="10" guides="1" tooltips="1" connect="1" arrows="1" fold="1" page="1" pageScale="1" pageWidth="827" pageHeight="1169" math="0" shadow="0">
      <root>
        <mxCell id="0" />
        <mxCell id="1" parent="0" />
        <mxCell id="YoyHDTf47q8zvpWsktNP-3" value="" style="edgeStyle=orthogonalEdgeStyle;rounded=0;orthogonalLoop=1;jettySize=auto;html=1;" edge="1" parent="1" source="YoyHDTf47q8zvpWsktNP-1" target="YoyHDTf47q8zvpWsktNP-2">
          <mxGeometry relative="1" as="geometry" />
        </mxCell>
        <mxCell id="YoyHDTf47q8zvpWsktNP-1" value="Start" style="ellipse;whiteSpace=wrap;html=1;" vertex="1" parent="1">
          <mxGeometry x="285" y="90" width="90" height="80" as="geometry" />
        </mxCell>
        <mxCell id="YoyHDTf47q8zvpWsktNP-5" value="" style="edgeStyle=orthogonalEdgeStyle;rounded=0;orthogonalLoop=1;jettySize=auto;html=1;" edge="1" parent="1" source="YoyHDTf47q8zvpWsktNP-2" target="YoyHDTf47q8zvpWsktNP-4">
          <mxGeometry relative="1" as="geometry" />
        </mxCell>
        <mxCell id="YoyHDTf47q8zvpWsktNP-2" value="print: Hello!" style="whiteSpace=wrap;html=1;" vertex="1" parent="1">
          <mxGeometry x="270" y="220" width="120" height="60" as="geometry" />
        </mxCell>
        <mxCell id="YoyHDTf47q8zvpWsktNP-4" value="END" style="ellipse;whiteSpace=wrap;html=1;" vertex="1" parent="1">
          <mxGeometry x="290" y="350" width="80" height="80" as="geometry" />
        </mxCell>
        <mxCell id="YoyHDTf47q8zvpWsktNP-6" value="this process shall be written in Python!" style="shape=document;whiteSpace=wrap;html=1;boundedLbl=1;" vertex="1" parent="1">
          <mxGeometry x="50" y="210" width="200" height="120" as="geometry" />
        </mxCell>
        <mxCell id="YoyHDTf47q8zvpWsktNP-8" value="&lt;h1 style=&quot;margin-top: 0px;&quot;&gt;&lt;span style=&quot;background-color: transparent; color: light-dark(rgb(0, 0, 0), rgb(255, 255, 255));&quot;&gt;Pseudo Code&lt;/span&gt;&lt;/h1&gt;&lt;h1 style=&quot;margin-top: 0px;&quot;&gt;----------&lt;/h1&gt;&lt;div&gt;START&lt;/div&gt;&lt;div&gt;&lt;span style=&quot;white-space: pre;&quot;&gt;&#x9;&lt;/span&gt;PRINT&amp;nbsp; &quot;Hello!&quot;&lt;/div&gt;&lt;div&gt;END&lt;/div&gt;" style="text;html=1;whiteSpace=wrap;overflow=hidden;rounded=0;" vertex="1" parent="1">
          <mxGeometry x="410" y="161" width="270" height="209" as="geometry" />
        </mxCell>
      </root>
    </mxGraphModel>
  </diagram>
</mxfile>
